<?xml version="1.0"?>
<svg version="1.1" xmlns="http://www.w3.org/2000/svg" width="400px" height="200px" style="border: dashed 2px #aaa"><path fill="#00b825" d="M70.658203125,106.767578125q0,4.962890625-2.4609375,7.62890625t-7.0546875,2.666015625t-7.0546875-2.666015625t-2.4609375-7.65625t2.4677734375-7.6220703125t7.0751953125-2.6318359375t7.0478515625,2.65234375t2.4404296875,7.62890625z M56.0703125,106.767578125q0,3.349609375,1.271484375,5.044921875t3.80078125,1.6953125q5.072265625,0,5.072265625-6.740234375q0-6.75390625-5.044921875-6.75390625q-2.529296875,0-3.814453125,1.7021484375t-1.28515625,5.0517578125z M76.72537109375,116.7890625l0-19.98828125l4.23828125,0l0,16.48828125l8.107421875,0l0,3.5l-12.345703125,0z M94.4683203125,116.7890625l0-19.98828125l4.23828125,0l0,19.98828125l-4.23828125,0z M114.12533203125,116.7890625l-4.8125-15.681640625l-0.123046875,0q0.259765625,4.78515625,0.259765625,6.384765625l0,9.296875l-3.787109375,0l0-19.98828125l5.76953125,0l4.73046875,15.28515625l0.08203125,0l5.017578125-15.28515625l5.76953125,0l0,19.98828125l-3.951171875,0l0-9.4609375q0-0.669921875,0.0205078125-1.544921875t0.1845703125-4.6484375l-0.123046875,0l-5.154296875,15.654296875l-3.8828125,0z M145.499140625,116.7890625l-11.51171875,0l0-19.98828125l11.51171875,0l0,3.47265625l-7.2734375,0l0,4.388671875l6.767578125,0l0,3.47265625l-6.767578125,0l0,5.154296875l7.2734375,0l0,3.5z M160.05654296875,116.7890625l-4.8125-15.681640625l-0.123046875,0q0.259765625,4.78515625,0.259765625,6.384765625l0,9.296875l-3.787109375,0l0-19.98828125l5.76953125,0l4.73046875,15.28515625l0.08203125,0l5.017578125-15.28515625l5.76953125,0l0,19.98828125l-3.951171875,0l0-9.4609375q0-0.669921875,0.0205078125-1.544921875t0.1845703125-4.6484375l-0.123046875,0l-5.154296875,15.654296875l-3.8828125,0z M189.11666015625,116.7890625l0-19.98828125l4.23828125,0l0,16.48828125l8.107421875,0l0,3.5l-12.345703125,0z M215.3225,116.7890625l-4.8125-15.681640625l-0.123046875,0q0.259765625,4.78515625,0.259765625,6.384765625l0,9.296875l-3.787109375,0l0-19.98828125l5.76953125,0l4.73046875,15.28515625l0.08203125,0l5.017578125-15.28515625l5.76953125,0l0,19.98828125l-3.951171875,0l0-9.4609375q0-0.669921875,0.0205078125-1.544921875t0.1845703125-4.6484375l-0.123046875,0l-5.154296875,15.654296875l-3.8828125,0z M246.98341796875,111.23828125q0,2.70703125-1.9482421875,4.265625t-5.4208984375,1.55859375q-3.19921875,0-5.66015625-1.203125l0-3.9375q2.0234375,0.90234375,3.4248046875,1.271484375t2.5634765625,0.369140625q1.39453125,0,2.1396484375-0.533203125t0.7451171875-1.5859375q0-0.587890625-0.328125-1.0458984375t-0.9638671875-0.8818359375t-2.5908203125-1.353515625q-1.83203125-0.861328125-2.748046875-1.654296875t-1.462890625-1.845703125t-0.546875-2.4609375q0-2.65234375,1.7978515625-4.169921875t4.9697265625-1.517578125q1.55859375,0,2.9736328125,0.369140625t2.9599609375,1.0390625l-1.3671875,3.294921875q-1.599609375-0.65625-2.6455078125-0.916015625t-2.0576171875-0.259765625q-1.203125,0-1.845703125,0.560546875t-0.642578125,1.462890625q0,0.560546875,0.259765625,0.9775390625t0.8271484375,0.806640625t2.6865234375,1.4013671875q2.802734375,1.33984375,3.841796875,2.6865234375t1.0390625,3.3017578125z"/><path fill="#" d=""/></svg>
